<?xml version="1.0" encoding="utf-8"?>
<!-- Generator: Adobe Illustrator 25.4.1, SVG Export Plug-In . SVG Version: 6.00 Build 0)  -->
<svg version="1.1" id="Layer_1" xmlns="http://www.w3.org/2000/svg" xmlns:xlink="http://www.w3.org/1999/xlink" x="0px" y="0px"
	 viewBox="0 0 21 5" style="enable-background:new 0 0 21 5;" xml:space="preserve">
<style type="text/css">
	.st0{fill-rule:evenodd;clip-rule:evenodd;fill:#F9FFFF;}
</style>
<path class="st0" d="M2.5,0C3.9,0,5,1.1,5,2.5S3.9,5,2.5,5S0,3.9,0,2.5S1.1,0,2.5,0z M10.5,0C11.9,0,13,1.1,13,2.5S11.9,5,10.5,5
	S8,3.9,8,2.5S9.1,0,10.5,0z M18.5,0C19.9,0,21,1.1,21,2.5S19.9,5,18.5,5S16,3.9,16,2.5S17.1,0,18.5,0z"/>
</svg>
